# xmcd CD database file
#
# Track frame offsets:
#	150
#	14397
#	27338
#	48380
#	62257
#	79236
#	100436
#	118564
#	131737
#	153436
#	170390
#	193589
#
# Disc length: 2833 seconds
#
# Revision: 3
# Processed by: cddbd v1.5.2PL0 Copyright (c) Steve Scherf et al.
# Submitted via: CDex 1.70beta2
#
DISCID=980b0f0c
DTITLE=JUDGEMENT - みずいろ
DYEAR=2011
DGENRE=Rock
TTITLE0=replica
TTITLE1=ことわり
TTITLE2=ソラネ
TTITLE3=密室
TTITLE4=くらげ
TTITLE5=十六夜の月
TTITLE6=不完全ラヴァーズ
TTITLE7=ユキノシタ
TTITLE8=プリズム
TTITLE9=Loop,
TTITLE10=noise
TTITLE11=みずいろ
EXTD=YEAR: 2011
EXTT0=
EXTT1=
EXTT2=
EXTT3=
EXTT4=
EXTT5=
EXTT6=
EXTT7=
EXTT8=
EXTT9=
EXTT10=
EXTT11=
PLAYORDER=
